<mxfile host="app.diagrams.net" modified="2024-06-30T09:56:14.750Z" agent="Mozilla/5.0 (Macintosh; Intel Mac OS X 10.15; rv:109.0) Gecko/20100101 Firefox/115.0" etag="PNaDUBwL8NvGpwzVt6Zi" version="24.6.4" type="github">
  <diagram name="Page-1" id="WcbimgASWyKFYWRgDJHT">
    <mxGraphModel dx="1769" dy="1804" grid="0" gridSize="10" guides="1" tooltips="1" connect="1" arrows="1" fold="1" page="0" pageScale="1" pageWidth="850" pageHeight="1100" background="#000000" math="0" shadow="0">
      <root>
        <mxCell id="0" />
        <mxCell id="1" parent="0" />
        <mxCell id="DyRPAL3B6Roxzkc7XD3o-106" style="edgeStyle=orthogonalEdgeStyle;rounded=0;orthogonalLoop=1;jettySize=auto;html=1;entryX=0;entryY=0.5;entryDx=0;entryDy=0;labelBackgroundColor=none;strokeColor=#FFFFFF;fontColor=default;strokeWidth=2;startArrow=classic;startFill=1;endArrow=none;endFill=0;startSize=10;" parent="1" source="DyRPAL3B6Roxzkc7XD3o-27" target="DyRPAL3B6Roxzkc7XD3o-43" edge="1">
          <mxGeometry relative="1" as="geometry" />
        </mxCell>
        <mxCell id="DyRPAL3B6Roxzkc7XD3o-27" value="&lt;b&gt;&lt;span style=&quot;font-size: 14px;&quot;&gt;&lt;font face=&quot;Verdana&quot;&gt;&amp;lt;&amp;lt;Interface&amp;gt;&amp;gt;&lt;br&gt;GameEntity&lt;/font&gt;&lt;/span&gt;&lt;/b&gt;" style="swimlane;fontStyle=0;childLayout=stackLayout;horizontal=1;startSize=40;horizontalStack=0;resizeParent=1;resizeParentMax=0;resizeLast=0;collapsible=1;marginBottom=0;whiteSpace=wrap;html=1;labelBackgroundColor=none;fillColor=#5D7F99;strokeColor=#FFFFFF;fontColor=#1A1A1A;rounded=0;spacingTop=0;spacing=2;strokeWidth=2;" parent="1" vertex="1">
          <mxGeometry x="-15" y="15" width="180" height="340" as="geometry">
            <mxRectangle x="40" y="40" width="130" height="50" as="alternateBounds" />
          </mxGeometry>
        </mxCell>
        <mxCell id="DyRPAL3B6Roxzkc7XD3o-28" value=" + getPosition(): Point" style="text;strokeColor=none;fillColor=none;align=left;verticalAlign=middle;spacingLeft=4;spacingRight=4;overflow=hidden;points=[[0,0.5],[1,0.5]];portConstraint=eastwest;rotatable=0;whiteSpace=wrap;html=1;labelBackgroundColor=none;fontColor=#FFFFFF;rounded=0;fontFamily=https://fonts.googleapis.com/css2?family=Roboto+Mono:ital,wght@0,100..700;1,100..700&amp;display=swap;fontSource=https%3A%2F%2Ffonts.googleapis.com%2Fcss%3Ffamily%3Dhttps%253A%252F%252Ffonts.googleapis.com%252Fcss2%253Ffamily%253DRoboto%252BMono%253Aital%252Cwght%25400%252C100..700%253B1%252C100..700%2526display%253Dswap;" parent="DyRPAL3B6Roxzkc7XD3o-27" vertex="1">
          <mxGeometry y="40" width="180" height="30" as="geometry" />
        </mxCell>
        <mxCell id="DyRPAL3B6Roxzkc7XD3o-29" value="+ getSize(): Dimension" style="text;strokeColor=none;fillColor=none;align=left;verticalAlign=middle;spacingLeft=4;spacingRight=4;overflow=hidden;points=[[0,0.5],[1,0.5]];portConstraint=eastwest;rotatable=0;whiteSpace=wrap;html=1;labelBackgroundColor=none;fontColor=#FFFFFF;rounded=0;fontFamily=https://fonts.googleapis.com/css2?family=Roboto+Mono:ital,wght@0,100..700;1,100..700&amp;display=swap;fontSource=https%3A%2F%2Ffonts.googleapis.com%2Fcss%3Ffamily%3Dhttps%253A%252F%252Ffonts.googleapis.com%252Fcss2%253Ffamily%253DRoboto%252BMono%253Aital%252Cwght%25400%252C100..700%253B1%252C100..700%2526display%253Dswap;" parent="DyRPAL3B6Roxzkc7XD3o-27" vertex="1">
          <mxGeometry y="70" width="180" height="30" as="geometry" />
        </mxCell>
        <mxCell id="DyRPAL3B6Roxzkc7XD3o-30" value="+ getHealth(): int" style="text;strokeColor=none;fillColor=none;align=left;verticalAlign=middle;spacingLeft=4;spacingRight=4;overflow=hidden;points=[[0,0.5],[1,0.5]];portConstraint=eastwest;rotatable=0;whiteSpace=wrap;html=1;labelBackgroundColor=none;fontColor=#FFFFFF;rounded=0;fontFamily=https://fonts.googleapis.com/css2?family=Roboto+Mono:ital,wght@0,100..700;1,100..700&amp;display=swap;fontSource=https%3A%2F%2Ffonts.googleapis.com%2Fcss%3Ffamily%3Dhttps%253A%252F%252Ffonts.googleapis.com%252Fcss2%253Ffamily%253DRoboto%252BMono%253Aital%252Cwght%25400%252C100..700%253B1%252C100..700%2526display%253Dswap;" parent="DyRPAL3B6Roxzkc7XD3o-27" vertex="1">
          <mxGeometry y="100" width="180" height="30" as="geometry" />
        </mxCell>
        <mxCell id="DyRPAL3B6Roxzkc7XD3o-31" value="+ getColor(): Color" style="text;strokeColor=none;fillColor=none;align=left;verticalAlign=middle;spacingLeft=4;spacingRight=4;overflow=hidden;points=[[0,0.5],[1,0.5]];portConstraint=eastwest;rotatable=0;whiteSpace=wrap;html=1;labelBackgroundColor=none;fontColor=#FFFFFF;rounded=0;fontFamily=https://fonts.googleapis.com/css2?family=Roboto+Mono:ital,wght@0,100..700;1,100..700&amp;display=swap;fontSource=https%3A%2F%2Ffonts.googleapis.com%2Fcss%3Ffamily%3Dhttps%253A%252F%252Ffonts.googleapis.com%252Fcss2%253Ffamily%253DRoboto%252BMono%253Aital%252Cwght%25400%252C100..700%253B1%252C100..700%2526display%253Dswap;" parent="DyRPAL3B6Roxzkc7XD3o-27" vertex="1">
          <mxGeometry y="130" width="180" height="30" as="geometry" />
        </mxCell>
        <mxCell id="DyRPAL3B6Roxzkc7XD3o-32" value="+ onCollision(): void" style="text;strokeColor=none;fillColor=none;align=left;verticalAlign=middle;spacingLeft=4;spacingRight=4;overflow=hidden;points=[[0,0.5],[1,0.5]];portConstraint=eastwest;rotatable=0;whiteSpace=wrap;html=1;labelBackgroundColor=none;fontColor=#FFFFFF;rounded=0;fontFamily=https://fonts.googleapis.com/css2?family=Roboto+Mono:ital,wght@0,100..700;1,100..700&amp;display=swap;fontSource=https%3A%2F%2Ffonts.googleapis.com%2Fcss%3Ffamily%3Dhttps%253A%252F%252Ffonts.googleapis.com%252Fcss2%253Ffamily%253DRoboto%252BMono%253Aital%252Cwght%25400%252C100..700%253B1%252C100..700%2526display%253Dswap;" parent="DyRPAL3B6Roxzkc7XD3o-27" vertex="1">
          <mxGeometry y="160" width="180" height="30" as="geometry" />
        </mxCell>
        <mxCell id="DyRPAL3B6Roxzkc7XD3o-33" value="+ isAlive(): boolean" style="text;strokeColor=none;fillColor=none;align=left;verticalAlign=middle;spacingLeft=4;spacingRight=4;overflow=hidden;points=[[0,0.5],[1,0.5]];portConstraint=eastwest;rotatable=0;whiteSpace=wrap;html=1;labelBackgroundColor=none;fontColor=#FFFFFF;rounded=0;fontFamily=https://fonts.googleapis.com/css2?family=Roboto+Mono:ital,wght@0,100..700;1,100..700&amp;display=swap;fontSource=https%3A%2F%2Ffonts.googleapis.com%2Fcss%3Ffamily%3Dhttps%253A%252F%252Ffonts.googleapis.com%252Fcss2%253Ffamily%253DRoboto%252BMono%253Aital%252Cwght%25400%252C100..700%253B1%252C100..700%2526display%253Dswap;" parent="DyRPAL3B6Roxzkc7XD3o-27" vertex="1">
          <mxGeometry y="190" width="180" height="30" as="geometry" />
        </mxCell>
        <mxCell id="DyRPAL3B6Roxzkc7XD3o-34" value="+ setPosition(p: Point): void" style="text;strokeColor=none;fillColor=none;align=left;verticalAlign=middle;spacingLeft=4;spacingRight=4;overflow=hidden;points=[[0,0.5],[1,0.5]];portConstraint=eastwest;rotatable=0;whiteSpace=wrap;html=1;labelBackgroundColor=none;fontColor=#FFFFFF;rounded=0;fontFamily=https://fonts.googleapis.com/css2?family=Roboto+Mono:ital,wght@0,100..700;1,100..700&amp;display=swap;fontSource=https%3A%2F%2Ffonts.googleapis.com%2Fcss%3Ffamily%3Dhttps%253A%252F%252Ffonts.googleapis.com%252Fcss2%253Ffamily%253DRoboto%252BMono%253Aital%252Cwght%25400%252C100..700%253B1%252C100..700%2526display%253Dswap;" parent="DyRPAL3B6Roxzkc7XD3o-27" vertex="1">
          <mxGeometry y="220" width="180" height="30" as="geometry" />
        </mxCell>
        <mxCell id="DyRPAL3B6Roxzkc7XD3o-35" value="+ setSize(d: Dimension): void" style="text;strokeColor=none;fillColor=none;align=left;verticalAlign=middle;spacingLeft=4;spacingRight=4;overflow=hidden;points=[[0,0.5],[1,0.5]];portConstraint=eastwest;rotatable=0;whiteSpace=wrap;html=1;labelBackgroundColor=none;fontColor=#FFFFFF;rounded=0;fontFamily=https://fonts.googleapis.com/css2?family=Roboto+Mono:ital,wght@0,100..700;1,100..700&amp;display=swap;fontSource=https%3A%2F%2Ffonts.googleapis.com%2Fcss%3Ffamily%3Dhttps%253A%252F%252Ffonts.googleapis.com%252Fcss2%253Ffamily%253DRoboto%252BMono%253Aital%252Cwght%25400%252C100..700%253B1%252C100..700%2526display%253Dswap;" parent="DyRPAL3B6Roxzkc7XD3o-27" vertex="1">
          <mxGeometry y="250" width="180" height="30" as="geometry" />
        </mxCell>
        <mxCell id="DyRPAL3B6Roxzkc7XD3o-36" value="+ setHealth(h: int): void" style="text;strokeColor=none;fillColor=none;align=left;verticalAlign=middle;spacingLeft=4;spacingRight=4;overflow=hidden;points=[[0,0.5],[1,0.5]];portConstraint=eastwest;rotatable=0;whiteSpace=wrap;html=1;labelBackgroundColor=none;fontColor=#FFFFFF;rounded=0;fontFamily=https://fonts.googleapis.com/css2?family=Roboto+Mono:ital,wght@0,100..700;1,100..700&amp;display=swap;fontSource=https%3A%2F%2Ffonts.googleapis.com%2Fcss%3Ffamily%3Dhttps%253A%252F%252Ffonts.googleapis.com%252Fcss2%253Ffamily%253DRoboto%252BMono%253Aital%252Cwght%25400%252C100..700%253B1%252C100..700%2526display%253Dswap;" parent="DyRPAL3B6Roxzkc7XD3o-27" vertex="1">
          <mxGeometry y="280" width="180" height="30" as="geometry" />
        </mxCell>
        <mxCell id="DyRPAL3B6Roxzkc7XD3o-37" value="+ setColor(c: Color): void" style="text;strokeColor=none;fillColor=none;align=left;verticalAlign=middle;spacingLeft=4;spacingRight=4;overflow=hidden;points=[[0,0.5],[1,0.5]];portConstraint=eastwest;rotatable=0;whiteSpace=wrap;html=1;labelBackgroundColor=none;fontColor=#FFFFFF;rounded=0;fontFamily=https://fonts.googleapis.com/css2?family=Roboto+Mono:ital,wght@0,100..700;1,100..700&amp;display=swap;fontSource=https%3A%2F%2Ffonts.googleapis.com%2Fcss%3Ffamily%3Dhttps%253A%252F%252Ffonts.googleapis.com%252Fcss2%253Ffamily%253DRoboto%252BMono%253Aital%252Cwght%25400%252C100..700%253B1%252C100..700%2526display%253Dswap;" parent="DyRPAL3B6Roxzkc7XD3o-27" vertex="1">
          <mxGeometry y="310" width="180" height="30" as="geometry" />
        </mxCell>
        <mxCell id="DyRPAL3B6Roxzkc7XD3o-109" style="edgeStyle=orthogonalEdgeStyle;rounded=0;orthogonalLoop=1;jettySize=auto;html=1;exitX=0.5;exitY=1;exitDx=0;exitDy=0;entryX=0.5;entryY=0;entryDx=0;entryDy=0;labelBackgroundColor=none;strokeColor=#FFFFFF;fontColor=default;strokeWidth=2;endArrow=diamondThin;endFill=1;startSize=16;endSize=20;" parent="1" source="DyRPAL3B6Roxzkc7XD3o-39" target="DyRPAL3B6Roxzkc7XD3o-54" edge="1">
          <mxGeometry relative="1" as="geometry" />
        </mxCell>
        <mxCell id="DyRPAL3B6Roxzkc7XD3o-110" style="edgeStyle=orthogonalEdgeStyle;rounded=0;orthogonalLoop=1;jettySize=auto;html=1;exitX=0.5;exitY=1;exitDx=0;exitDy=0;entryX=0.5;entryY=0;entryDx=0;entryDy=0;labelBackgroundColor=none;strokeColor=#FFFFFF;fontColor=default;strokeWidth=2;endArrow=diamondThin;endFill=1;endSize=20;" parent="1" source="DyRPAL3B6Roxzkc7XD3o-39" target="DyRPAL3B6Roxzkc7XD3o-67" edge="1">
          <mxGeometry relative="1" as="geometry" />
        </mxCell>
        <mxCell id="DyRPAL3B6Roxzkc7XD3o-111" style="edgeStyle=orthogonalEdgeStyle;rounded=0;orthogonalLoop=1;jettySize=auto;html=1;exitX=0.5;exitY=1;exitDx=0;exitDy=0;entryX=0.5;entryY=0;entryDx=0;entryDy=0;labelBackgroundColor=none;strokeColor=#FFFFFF;fontColor=default;strokeWidth=2;endArrow=diamondThin;endFill=1;endSize=20;" parent="1" source="DyRPAL3B6Roxzkc7XD3o-39" target="DyRPAL3B6Roxzkc7XD3o-80" edge="1">
          <mxGeometry relative="1" as="geometry" />
        </mxCell>
        <mxCell id="DyRPAL3B6Roxzkc7XD3o-39" value="&lt;font face=&quot;Verdana&quot;&gt;&lt;b style=&quot;font-size: 14px;&quot;&gt;&amp;lt;&amp;lt;Abstract&amp;gt;&amp;gt;&lt;br&gt;GameEntityImpl&lt;/b&gt;&lt;/font&gt;" style="swimlane;fontStyle=0;childLayout=stackLayout;horizontal=1;startSize=40;horizontalStack=0;resizeParent=1;resizeParentMax=0;resizeLast=0;collapsible=1;marginBottom=0;whiteSpace=wrap;html=1;labelBackgroundColor=none;fillColor=#5D7F99;strokeColor=#FFFFFF;fontColor=#1A1A1A;rounded=0;strokeWidth=2;" parent="1" vertex="1">
          <mxGeometry x="340" y="40" width="300" height="280" as="geometry">
            <mxRectangle x="340" y="40" width="150" height="50" as="alternateBounds" />
          </mxGeometry>
        </mxCell>
        <mxCell id="DyRPAL3B6Roxzkc7XD3o-40" value="- position: Point" style="text;strokeColor=none;fillColor=none;align=left;verticalAlign=middle;spacingLeft=4;spacingRight=4;overflow=hidden;points=[[0,0.5],[1,0.5]];portConstraint=eastwest;rotatable=0;whiteSpace=wrap;html=1;labelBackgroundColor=none;fontColor=#FFFFFF;rounded=0;fontFamily=https://fonts.googleapis.com/css2?family=Roboto+Mono:ital,wght@0,100..700;1,100..700&amp;display=swap;fontSource=https%3A%2F%2Ffonts.googleapis.com%2Fcss%3Ffamily%3Dhttps%253A%252F%252Ffonts.googleapis.com%252Fcss2%253Ffamily%253DRoboto%252BMono%253Aital%252Cwght%25400%252C100..700%253B1%252C100..700%2526display%253Dswap;" parent="DyRPAL3B6Roxzkc7XD3o-39" vertex="1">
          <mxGeometry y="40" width="300" height="30" as="geometry" />
        </mxCell>
        <mxCell id="DyRPAL3B6Roxzkc7XD3o-41" value="- size: Dimension" style="text;strokeColor=none;fillColor=none;align=left;verticalAlign=middle;spacingLeft=4;spacingRight=4;overflow=hidden;points=[[0,0.5],[1,0.5]];portConstraint=eastwest;rotatable=0;whiteSpace=wrap;html=1;labelBackgroundColor=none;fontColor=#FFFFFF;rounded=0;fontFamily=https://fonts.googleapis.com/css2?family=Roboto+Mono:ital,wght@0,100..700;1,100..700&amp;display=swap;fontSource=https%3A%2F%2Ffonts.googleapis.com%2Fcss%3Ffamily%3Dhttps%253A%252F%252Ffonts.googleapis.com%252Fcss2%253Ffamily%253DRoboto%252BMono%253Aital%252Cwght%25400%252C100..700%253B1%252C100..700%2526display%253Dswap;" parent="DyRPAL3B6Roxzkc7XD3o-39" vertex="1">
          <mxGeometry y="70" width="300" height="30" as="geometry" />
        </mxCell>
        <mxCell id="DyRPAL3B6Roxzkc7XD3o-42" value="- health: int" style="text;strokeColor=none;fillColor=none;align=left;verticalAlign=middle;spacingLeft=4;spacingRight=4;overflow=hidden;points=[[0,0.5],[1,0.5]];portConstraint=eastwest;rotatable=0;whiteSpace=wrap;html=1;labelBackgroundColor=none;fontColor=#FFFFFF;rounded=0;fontFamily=https://fonts.googleapis.com/css2?family=Roboto+Mono:ital,wght@0,100..700;1,100..700&amp;display=swap;fontSource=https%3A%2F%2Ffonts.googleapis.com%2Fcss%3Ffamily%3Dhttps%253A%252F%252Ffonts.googleapis.com%252Fcss2%253Ffamily%253DRoboto%252BMono%253Aital%252Cwght%25400%252C100..700%253B1%252C100..700%2526display%253Dswap;" parent="DyRPAL3B6Roxzkc7XD3o-39" vertex="1">
          <mxGeometry y="100" width="300" height="30" as="geometry" />
        </mxCell>
        <mxCell id="DyRPAL3B6Roxzkc7XD3o-43" value="- color: Color" style="text;strokeColor=none;fillColor=none;align=left;verticalAlign=middle;spacingLeft=4;spacingRight=4;overflow=hidden;points=[[0,0.5],[1,0.5]];portConstraint=eastwest;rotatable=0;whiteSpace=wrap;html=1;labelBackgroundColor=none;fontColor=#FFFFFF;rounded=0;fontFamily=https://fonts.googleapis.com/css2?family=Roboto+Mono:ital,wght@0,100..700;1,100..700&amp;display=swap;fontSource=https%3A%2F%2Ffonts.googleapis.com%2Fcss%3Ffamily%3Dhttps%253A%252F%252Ffonts.googleapis.com%252Fcss2%253Ffamily%253DRoboto%252BMono%253Aital%252Cwght%25400%252C100..700%253B1%252C100..700%2526display%253Dswap;" parent="DyRPAL3B6Roxzkc7XD3o-39" vertex="1">
          <mxGeometry y="130" width="300" height="30" as="geometry" />
        </mxCell>
        <mxCell id="DyRPAL3B6Roxzkc7XD3o-48" value="# IMMORTAL_ENTITY_HEALTH: int = -1" style="text;strokeColor=none;fillColor=none;align=left;verticalAlign=middle;spacingLeft=4;spacingRight=4;overflow=hidden;points=[[0,0.5],[1,0.5]];portConstraint=eastwest;rotatable=0;whiteSpace=wrap;html=1;labelBackgroundColor=none;fontColor=#FFFFFF;rounded=0;fontFamily=https://fonts.googleapis.com/css2?family=Roboto+Mono:ital,wght@0,100..700;1,100..700&amp;display=swap;fontSource=https%3A%2F%2Ffonts.googleapis.com%2Fcss%3Ffamily%3Dhttps%253A%252F%252Ffonts.googleapis.com%252Fcss2%253Ffamily%253DRoboto%252BMono%253Aital%252Cwght%25400%252C100..700%253B1%252C100..700%2526display%253Dswap;" parent="DyRPAL3B6Roxzkc7XD3o-39" vertex="1">
          <mxGeometry y="160" width="300" height="30" as="geometry" />
        </mxCell>
        <mxCell id="DyRPAL3B6Roxzkc7XD3o-49" value="# MIN_HEALTH: int = 1" style="text;strokeColor=none;fillColor=none;align=left;verticalAlign=middle;spacingLeft=4;spacingRight=4;overflow=hidden;points=[[0,0.5],[1,0.5]];portConstraint=eastwest;rotatable=0;whiteSpace=wrap;html=1;labelBackgroundColor=none;fontColor=#FFFFFF;rounded=0;fontFamily=https://fonts.googleapis.com/css2?family=Roboto+Mono:ital,wght@0,100..700;1,100..700&amp;display=swap;fontSource=https%3A%2F%2Ffonts.googleapis.com%2Fcss%3Ffamily%3Dhttps%253A%252F%252Ffonts.googleapis.com%252Fcss2%253Ffamily%253DRoboto%252BMono%253Aital%252Cwght%25400%252C100..700%253B1%252C100..700%2526display%253Dswap;" parent="DyRPAL3B6Roxzkc7XD3o-39" vertex="1">
          <mxGeometry y="190" width="300" height="30" as="geometry" />
        </mxCell>
        <mxCell id="DyRPAL3B6Roxzkc7XD3o-50" value="# MAX_HEALTH: int = 2" style="text;strokeColor=none;fillColor=none;align=left;verticalAlign=middle;spacingLeft=4;spacingRight=4;overflow=hidden;points=[[0,0.5],[1,0.5]];portConstraint=eastwest;rotatable=0;whiteSpace=wrap;html=1;labelBackgroundColor=none;fontColor=#FFFFFF;rounded=0;fontFamily=https://fonts.googleapis.com/css2?family=Roboto+Mono:ital,wght@0,100..700;1,100..700&amp;display=swap;fontSource=https%3A%2F%2Ffonts.googleapis.com%2Fcss%3Ffamily%3Dhttps%253A%252F%252Ffonts.googleapis.com%252Fcss2%253Ffamily%253DRoboto%252BMono%253Aital%252Cwght%25400%252C100..700%253B1%252C100..700%2526display%253Dswap;" parent="DyRPAL3B6Roxzkc7XD3o-39" vertex="1">
          <mxGeometry y="220" width="300" height="30" as="geometry" />
        </mxCell>
        <mxCell id="DyRPAL3B6Roxzkc7XD3o-51" value="# DEFAULT_COLOR: Color = new Color(70,70,70)" style="text;strokeColor=none;fillColor=none;align=left;verticalAlign=middle;spacingLeft=4;spacingRight=4;overflow=hidden;points=[[0,0.5],[1,0.5]];portConstraint=eastwest;rotatable=0;whiteSpace=wrap;html=1;labelBackgroundColor=none;fontColor=#FFFFFF;rounded=0;fontFamily=https://fonts.googleapis.com/css2?family=Roboto+Mono:ital,wght@0,100..700;1,100..700&amp;display=swap;fontSource=https%3A%2F%2Ffonts.googleapis.com%2Fcss%3Ffamily%3Dhttps%253A%252F%252Ffonts.googleapis.com%252Fcss2%253Ffamily%253DRoboto%252BMono%253Aital%252Cwght%25400%252C100..700%253B1%252C100..700%2526display%253Dswap;" parent="DyRPAL3B6Roxzkc7XD3o-39" vertex="1">
          <mxGeometry y="250" width="300" height="30" as="geometry" />
        </mxCell>
        <mxCell id="DyRPAL3B6Roxzkc7XD3o-54" value="&lt;font face=&quot;Verdana&quot;&gt;&lt;b&gt;Bar&lt;/b&gt;&lt;/font&gt;" style="swimlane;fontStyle=0;childLayout=stackLayout;horizontal=1;startSize=40;horizontalStack=0;resizeParent=1;resizeParentMax=0;resizeLast=0;collapsible=1;marginBottom=0;whiteSpace=wrap;html=1;labelBackgroundColor=none;fillColor=#5D7F99;strokeColor=#D0CEE2;fontColor=#1A1A1A;rounded=0;strokeWidth=2;" parent="1" vertex="1">
          <mxGeometry x="-150" y="560" width="340" height="400" as="geometry">
            <mxRectangle x="-150" y="560" width="150" height="50" as="alternateBounds" />
          </mxGeometry>
        </mxCell>
        <mxCell id="DyRPAL3B6Roxzkc7XD3o-55" value="- direction: int" style="text;strokeColor=none;fillColor=none;align=left;verticalAlign=middle;spacingLeft=4;spacingRight=4;overflow=hidden;points=[[0,0.5],[1,0.5]];portConstraint=eastwest;rotatable=0;whiteSpace=wrap;html=1;labelBackgroundColor=none;fontColor=#FFFFFF;rounded=0;fontFamily=https://fonts.googleapis.com/css2?family=Roboto+Mono:ital,wght@0,100..700;1,100..700&amp;display=swap;fontSource=https%3A%2F%2Ffonts.googleapis.com%2Fcss%3Ffamily%3Dhttps%253A%252F%252Ffonts.googleapis.com%252Fcss2%253Ffamily%253DRoboto%252BMono%253Aital%252Cwght%25400%252C100..700%253B1%252C100..700%2526display%253Dswap;" parent="DyRPAL3B6Roxzkc7XD3o-54" vertex="1">
          <mxGeometry y="40" width="340" height="30" as="geometry" />
        </mxCell>
        <mxCell id="DyRPAL3B6Roxzkc7XD3o-56" value="+ getDirection(): int" style="text;strokeColor=none;fillColor=none;align=left;verticalAlign=middle;spacingLeft=4;spacingRight=4;overflow=hidden;points=[[0,0.5],[1,0.5]];portConstraint=eastwest;rotatable=0;whiteSpace=wrap;html=1;labelBackgroundColor=none;fontColor=#FFFFFF;rounded=0;fontFamily=https://fonts.googleapis.com/css2?family=Roboto+Mono:ital,wght@0,100..700;1,100..700&amp;display=swap;fontSource=https%3A%2F%2Ffonts.googleapis.com%2Fcss%3Ffamily%3Dhttps%253A%252F%252Ffonts.googleapis.com%252Fcss2%253Ffamily%253DRoboto%252BMono%253Aital%252Cwght%25400%252C100..700%253B1%252C100..700%2526display%253Dswap;" parent="DyRPAL3B6Roxzkc7XD3o-54" vertex="1">
          <mxGeometry y="70" width="340" height="30" as="geometry" />
        </mxCell>
        <mxCell id="DyRPAL3B6Roxzkc7XD3o-57" value="+ setDirection(d: int): void" style="text;strokeColor=none;fillColor=none;align=left;verticalAlign=middle;spacingLeft=4;spacingRight=4;overflow=hidden;points=[[0,0.5],[1,0.5]];portConstraint=eastwest;rotatable=0;whiteSpace=wrap;html=1;labelBackgroundColor=none;fontColor=#FFFFFF;rounded=0;fontFamily=https://fonts.googleapis.com/css2?family=Roboto+Mono:ital,wght@0,100..700;1,100..700&amp;display=swap;fontSource=https%3A%2F%2Ffonts.googleapis.com%2Fcss%3Ffamily%3Dhttps%253A%252F%252Ffonts.googleapis.com%252Fcss2%253Ffamily%253DRoboto%252BMono%253Aital%252Cwght%25400%252C100..700%253B1%252C100..700%2526display%253Dswap;" parent="DyRPAL3B6Roxzkc7XD3o-54" vertex="1">
          <mxGeometry y="100" width="340" height="30" as="geometry" />
        </mxCell>
        <mxCell id="DyRPAL3B6Roxzkc7XD3o-58" value="+ move(): void" style="text;strokeColor=none;fillColor=none;align=left;verticalAlign=middle;spacingLeft=4;spacingRight=4;overflow=hidden;points=[[0,0.5],[1,0.5]];portConstraint=eastwest;rotatable=0;whiteSpace=wrap;html=1;labelBackgroundColor=none;fontColor=#FFFFFF;rounded=0;fontFamily=https://fonts.googleapis.com/css2?family=Roboto+Mono:ital,wght@0,100..700;1,100..700&amp;display=swap;fontSource=https%3A%2F%2Ffonts.googleapis.com%2Fcss%3Ffamily%3Dhttps%253A%252F%252Ffonts.googleapis.com%252Fcss2%253Ffamily%253DRoboto%252BMono%253Aital%252Cwght%25400%252C100..700%253B1%252C100..700%2526display%253Dswap;" parent="DyRPAL3B6Roxzkc7XD3o-54" vertex="1">
          <mxGeometry y="130" width="340" height="30" as="geometry" />
        </mxCell>
        <mxCell id="DyRPAL3B6Roxzkc7XD3o-114" value="+ setWidth(newwidth: int): void" style="text;strokeColor=none;fillColor=none;align=left;verticalAlign=middle;spacingLeft=4;spacingRight=4;overflow=hidden;points=[[0,0.5],[1,0.5]];portConstraint=eastwest;rotatable=0;whiteSpace=wrap;html=1;labelBackgroundColor=none;fontColor=#FFFFFF;rounded=0;fontFamily=https://fonts.googleapis.com/css2?family=Roboto+Mono:ital,wght@0,100..700;1,100..700&amp;display=swap;fontSource=https%3A%2F%2Ffonts.googleapis.com%2Fcss%3Ffamily%3Dhttps%253A%252F%252Ffonts.googleapis.com%252Fcss2%253Ffamily%253DRoboto%252BMono%253Aital%252Cwght%25400%252C100..700%253B1%252C100..700%2526display%253Dswap;" parent="DyRPAL3B6Roxzkc7XD3o-54" vertex="1">
          <mxGeometry y="160" width="340" height="30" as="geometry" />
        </mxCell>
        <mxCell id="DyRPAL3B6Roxzkc7XD3o-115" value="+ buttonPressed(e: KeyEvent): void" style="text;strokeColor=none;fillColor=none;align=left;verticalAlign=middle;spacingLeft=4;spacingRight=4;overflow=hidden;points=[[0,0.5],[1,0.5]];portConstraint=eastwest;rotatable=0;whiteSpace=wrap;html=1;labelBackgroundColor=none;fontColor=#FFFFFF;rounded=0;fontFamily=https://fonts.googleapis.com/css2?family=Roboto+Mono:ital,wght@0,100..700;1,100..700&amp;display=swap;fontSource=https%3A%2F%2Ffonts.googleapis.com%2Fcss%3Ffamily%3Dhttps%253A%252F%252Ffonts.googleapis.com%252Fcss2%253Ffamily%253DRoboto%252BMono%253Aital%252Cwght%25400%252C100..700%253B1%252C100..700%2526display%253Dswap;" parent="DyRPAL3B6Roxzkc7XD3o-54" vertex="1">
          <mxGeometry y="190" width="340" height="30" as="geometry" />
        </mxCell>
        <mxCell id="DyRPAL3B6Roxzkc7XD3o-116" value="+ buttonReleased(e: KeyEvent): void" style="text;strokeColor=none;fillColor=none;align=left;verticalAlign=middle;spacingLeft=4;spacingRight=4;overflow=hidden;points=[[0,0.5],[1,0.5]];portConstraint=eastwest;rotatable=0;whiteSpace=wrap;html=1;labelBackgroundColor=none;fontColor=#FFFFFF;rounded=0;fontFamily=https://fonts.googleapis.com/css2?family=Roboto+Mono:ital,wght@0,100..700;1,100..700&amp;display=swap;fontSource=https%3A%2F%2Ffonts.googleapis.com%2Fcss%3Ffamily%3Dhttps%253A%252F%252Ffonts.googleapis.com%252Fcss2%253Ffamily%253DRoboto%252BMono%253Aital%252Cwght%25400%252C100..700%253B1%252C100..700%2526display%253Dswap;" parent="DyRPAL3B6Roxzkc7XD3o-54" vertex="1">
          <mxGeometry y="220" width="340" height="30" as="geometry" />
        </mxCell>
        <mxCell id="DyRPAL3B6Roxzkc7XD3o-63" value="# serialVersionUID: long = 43287403" style="text;strokeColor=none;fillColor=none;align=left;verticalAlign=middle;spacingLeft=4;spacingRight=4;overflow=hidden;points=[[0,0.5],[1,0.5]];portConstraint=eastwest;rotatable=0;whiteSpace=wrap;html=1;labelBackgroundColor=none;fontColor=#FFFFFF;rounded=0;fontFamily=https://fonts.googleapis.com/css2?family=Roboto+Mono:ital,wght@0,100..700;1,100..700&amp;display=swap;fontSource=https%3A%2F%2Ffonts.googleapis.com%2Fcss%3Ffamily%3Dhttps%253A%252F%252Ffonts.googleapis.com%252Fcss2%253Ffamily%253DRoboto%252BMono%253Aital%252Cwght%25400%252C100..700%253B1%252C100..700%2526display%253Dswap;strokeWidth=2;perimeterSpacing=0;" parent="DyRPAL3B6Roxzkc7XD3o-54" vertex="1">
          <mxGeometry y="250" width="340" height="30" as="geometry" />
        </mxCell>
        <mxCell id="DyRPAL3B6Roxzkc7XD3o-64" value="# LEFT_VALUE: int = -1" style="text;strokeColor=none;fillColor=none;align=left;verticalAlign=middle;spacingLeft=4;spacingRight=4;overflow=hidden;points=[[0,0.5],[1,0.5]];portConstraint=eastwest;rotatable=0;whiteSpace=wrap;html=1;labelBackgroundColor=none;fontColor=#FFFFFF;rounded=0;fontFamily=https://fonts.googleapis.com/css2?family=Roboto+Mono:ital,wght@0,100..700;1,100..700&amp;display=swap;fontSource=https%3A%2F%2Ffonts.googleapis.com%2Fcss%3Ffamily%3Dhttps%253A%252F%252Ffonts.googleapis.com%252Fcss2%253Ffamily%253DRoboto%252BMono%253Aital%252Cwght%25400%252C100..700%253B1%252C100..700%2526display%253Dswap;" parent="DyRPAL3B6Roxzkc7XD3o-54" vertex="1">
          <mxGeometry y="280" width="340" height="30" as="geometry" />
        </mxCell>
        <mxCell id="DyRPAL3B6Roxzkc7XD3o-65" value="# RIGHT_VALUE: int = 1" style="text;strokeColor=none;fillColor=none;align=left;verticalAlign=middle;spacingLeft=4;spacingRight=4;overflow=hidden;points=[[0,0.5],[1,0.5]];portConstraint=eastwest;rotatable=0;whiteSpace=wrap;html=1;labelBackgroundColor=none;fontColor=#FFFFFF;rounded=0;fontFamily=https://fonts.googleapis.com/css2?family=Roboto+Mono:ital,wght@0,100..700;1,100..700&amp;display=swap;fontSource=https%3A%2F%2Ffonts.googleapis.com%2Fcss%3Ffamily%3Dhttps%253A%252F%252Ffonts.googleapis.com%252Fcss2%253Ffamily%253DRoboto%252BMono%253Aital%252Cwght%25400%252C100..700%253B1%252C100..700%2526display%253Dswap;" parent="DyRPAL3B6Roxzkc7XD3o-54" vertex="1">
          <mxGeometry y="310" width="340" height="30" as="geometry" />
        </mxCell>
        <mxCell id="DyRPAL3B6Roxzkc7XD3o-66" value="# STOP_VALUE: int = 0" style="text;strokeColor=none;fillColor=none;align=left;verticalAlign=middle;spacingLeft=4;spacingRight=4;overflow=hidden;points=[[0,0.5],[1,0.5]];portConstraint=eastwest;rotatable=0;whiteSpace=wrap;html=1;labelBackgroundColor=none;fontColor=#FFFFFF;rounded=0;fontFamily=https://fonts.googleapis.com/css2?family=Roboto+Mono:ital,wght@0,100..700;1,100..700&amp;display=swap;fontSource=https%3A%2F%2Ffonts.googleapis.com%2Fcss%3Ffamily%3Dhttps%253A%252F%252Ffonts.googleapis.com%252Fcss2%253Ffamily%253DRoboto%252BMono%253Aital%252Cwght%25400%252C100..700%253B1%252C100..700%2526display%253Dswap;" parent="DyRPAL3B6Roxzkc7XD3o-54" vertex="1">
          <mxGeometry y="340" width="340" height="30" as="geometry" />
        </mxCell>
        <mxCell id="DyRPAL3B6Roxzkc7XD3o-113" value="# MOVE_VALUE: float = 0.01 * GameInfo.GAME_WIDTH" style="text;strokeColor=none;fillColor=none;align=left;verticalAlign=middle;spacingLeft=4;spacingRight=4;overflow=hidden;points=[[0,0.5],[1,0.5]];portConstraint=eastwest;rotatable=0;whiteSpace=wrap;html=1;labelBackgroundColor=none;fontColor=#FFFFFF;rounded=0;fontFamily=https://fonts.googleapis.com/css2?family=Roboto+Mono:ital,wght@0,100..700;1,100..700&amp;display=swap;fontSource=https%3A%2F%2Ffonts.googleapis.com%2Fcss%3Ffamily%3Dhttps%253A%252F%252Ffonts.googleapis.com%252Fcss2%253Ffamily%253DRoboto%252BMono%253Aital%252Cwght%25400%252C100..700%253B1%252C100..700%2526display%253Dswap;" parent="DyRPAL3B6Roxzkc7XD3o-54" vertex="1">
          <mxGeometry y="370" width="340" height="30" as="geometry" />
        </mxCell>
        <mxCell id="DyRPAL3B6Roxzkc7XD3o-67" value="&lt;font face=&quot;Verdana&quot;&gt;&lt;b&gt;Ball&lt;/b&gt;&lt;/font&gt;" style="swimlane;fontStyle=0;childLayout=stackLayout;horizontal=1;startSize=40;horizontalStack=0;resizeParent=1;resizeParentMax=0;resizeLast=0;collapsible=1;marginBottom=0;whiteSpace=wrap;html=1;labelBackgroundColor=none;fillColor=#5D7F99;strokeColor=#FFFFFF;fontColor=#1A1A1A;rounded=0;strokeWidth=2;" parent="1" vertex="1">
          <mxGeometry x="310.75" y="560" width="358.5" height="353" as="geometry">
            <mxRectangle x="340" y="310" width="150" height="50" as="alternateBounds" />
          </mxGeometry>
        </mxCell>
        <mxCell id="DyRPAL3B6Roxzkc7XD3o-68" value="- dir: Direction" style="text;strokeColor=none;fillColor=none;align=left;verticalAlign=middle;spacingLeft=4;spacingRight=4;overflow=hidden;points=[[0,0.5],[1,0.5]];portConstraint=eastwest;rotatable=0;whiteSpace=wrap;html=1;labelBackgroundColor=none;fontColor=#FFFFFF;rounded=0;fontFamily=https://fonts.googleapis.com/css2?family=Roboto+Mono:ital,wght@0,100..700;1,100..700&amp;display=swap;fontSource=https%3A%2F%2Ffonts.googleapis.com%2Fcss%3Ffamily%3Dhttps%253A%252F%252Ffonts.googleapis.com%252Fcss2%253Ffamily%253DRoboto%252BMono%253Aital%252Cwght%25400%252C100..700%253B1%252C100..700%2526display%253Dswap;" parent="DyRPAL3B6Roxzkc7XD3o-67" vertex="1">
          <mxGeometry y="40" width="358.5" height="30" as="geometry" />
        </mxCell>
        <mxCell id="DyRPAL3B6Roxzkc7XD3o-69" value="- rand: Random" style="text;strokeColor=none;fillColor=none;align=left;verticalAlign=middle;spacingLeft=4;spacingRight=4;overflow=hidden;points=[[0,0.5],[1,0.5]];portConstraint=eastwest;rotatable=0;whiteSpace=wrap;html=1;labelBackgroundColor=none;fontColor=#FFFFFF;rounded=0;fontFamily=https://fonts.googleapis.com/css2?family=Roboto+Mono:ital,wght@0,100..700;1,100..700&amp;display=swap;fontSource=https%3A%2F%2Ffonts.googleapis.com%2Fcss%3Ffamily%3Dhttps%253A%252F%252Ffonts.googleapis.com%252Fcss2%253Ffamily%253DRoboto%252BMono%253Aital%252Cwght%25400%252C100..700%253B1%252C100..700%2526display%253Dswap;" parent="DyRPAL3B6Roxzkc7XD3o-67" vertex="1">
          <mxGeometry y="70" width="358.5" height="30" as="geometry" />
        </mxCell>
        <mxCell id="DyRPAL3B6Roxzkc7XD3o-70" value="- sound: SoundManager" style="text;strokeColor=none;fillColor=none;align=left;verticalAlign=middle;spacingLeft=4;spacingRight=4;overflow=hidden;points=[[0,0.5],[1,0.5]];portConstraint=eastwest;rotatable=0;whiteSpace=wrap;html=1;labelBackgroundColor=none;fontColor=#FFFFFF;rounded=0;fontFamily=https://fonts.googleapis.com/css2?family=Roboto+Mono:ital,wght@0,100..700;1,100..700&amp;display=swap;fontSource=https%3A%2F%2Ffonts.googleapis.com%2Fcss%3Ffamily%3Dhttps%253A%252F%252Ffonts.googleapis.com%252Fcss2%253Ffamily%253DRoboto%252BMono%253Aital%252Cwght%25400%252C100..700%253B1%252C100..700%2526display%253Dswap;" parent="DyRPAL3B6Roxzkc7XD3o-67" vertex="1">
          <mxGeometry y="100" width="358.5" height="30" as="geometry" />
        </mxCell>
        <mxCell id="DyRPAL3B6Roxzkc7XD3o-71" value="+ getDirection(): Direction" style="text;strokeColor=none;fillColor=none;align=left;verticalAlign=middle;spacingLeft=4;spacingRight=4;overflow=hidden;points=[[0,0.5],[1,0.5]];portConstraint=eastwest;rotatable=0;whiteSpace=wrap;html=1;labelBackgroundColor=none;fontColor=#FFFFFF;rounded=0;fontFamily=https://fonts.googleapis.com/css2?family=Roboto+Mono:ital,wght@0,100..700;1,100..700&amp;display=swap;fontSource=https%3A%2F%2Ffonts.googleapis.com%2Fcss%3Ffamily%3Dhttps%253A%252F%252Ffonts.googleapis.com%252Fcss2%253Ffamily%253DRoboto%252BMono%253Aital%252Cwght%25400%252C100..700%253B1%252C100..700%2526display%253Dswap;" parent="DyRPAL3B6Roxzkc7XD3o-67" vertex="1">
          <mxGeometry y="130" width="358.5" height="30" as="geometry" />
        </mxCell>
        <mxCell id="DyRPAL3B6Roxzkc7XD3o-72" value="+ update(): void" style="text;strokeColor=none;fillColor=none;align=left;verticalAlign=middle;spacingLeft=4;spacingRight=4;overflow=hidden;points=[[0,0.5],[1,0.5]];portConstraint=eastwest;rotatable=0;whiteSpace=wrap;html=1;labelBackgroundColor=none;fontColor=#FFFFFF;rounded=0;fontFamily=https://fonts.googleapis.com/css2?family=Roboto+Mono:ital,wght@0,100..700;1,100..700&amp;display=swap;fontSource=https%3A%2F%2Ffonts.googleapis.com%2Fcss%3Ffamily%3Dhttps%253A%252F%252Ffonts.googleapis.com%252Fcss2%253Ffamily%253DRoboto%252BMono%253Aital%252Cwght%25400%252C100..700%253B1%252C100..700%2526display%253Dswap;" parent="DyRPAL3B6Roxzkc7XD3o-67" vertex="1">
          <mxGeometry y="160" width="358.5" height="30" as="geometry" />
        </mxCell>
        <mxCell id="DyRPAL3B6Roxzkc7XD3o-74" value="+ guidedCollision(hitDirection: int): void" style="text;strokeColor=none;fillColor=none;align=left;verticalAlign=middle;spacingLeft=4;spacingRight=4;overflow=hidden;points=[[0,0.5],[1,0.5]];portConstraint=eastwest;rotatable=0;whiteSpace=wrap;html=1;labelBackgroundColor=none;fontColor=#FFFFFF;rounded=0;fontFamily=https://fonts.googleapis.com/css2?family=Roboto+Mono:ital,wght@0,100..700;1,100..700&amp;display=swap;fontSource=https%3A%2F%2Ffonts.googleapis.com%2Fcss%3Ffamily%3Dhttps%253A%252F%252Ffonts.googleapis.com%252Fcss2%253Ffamily%253DRoboto%252BMono%253Aital%252Cwght%25400%252C100..700%253B1%252C100..700%2526display%253Dswap;" parent="DyRPAL3B6Roxzkc7XD3o-67" vertex="1">
          <mxGeometry y="190" width="358.5" height="30" as="geometry" />
        </mxCell>
        <mxCell id="DyRPAL3B6Roxzkc7XD3o-75" value="# serialVersionUID: long = 438743" style="text;strokeColor=none;fillColor=none;align=left;verticalAlign=middle;spacingLeft=4;spacingRight=4;overflow=hidden;points=[[0,0.5],[1,0.5]];portConstraint=eastwest;rotatable=0;whiteSpace=wrap;html=1;labelBackgroundColor=none;fontColor=#FFFFFF;rounded=0;fontFamily=https://fonts.googleapis.com/css2?family=Roboto+Mono:ital,wght@0,100..700;1,100..700&amp;display=swap;fontSource=https%3A%2F%2Ffonts.googleapis.com%2Fcss%3Ffamily%3Dhttps%253A%252F%252Ffonts.googleapis.com%252Fcss2%253Ffamily%253DRoboto%252BMono%253Aital%252Cwght%25400%252C100..700%253B1%252C100..700%2526display%253Dswap;" parent="DyRPAL3B6Roxzkc7XD3o-67" vertex="1">
          <mxGeometry y="220" width="358.5" height="30" as="geometry" />
        </mxCell>
        <mxCell id="DyRPAL3B6Roxzkc7XD3o-76" value="# BALL_DIMENSION: Dimension = new Dimension(5, 5)" style="text;strokeColor=none;fillColor=none;align=left;verticalAlign=middle;spacingLeft=4;spacingRight=4;overflow=hidden;points=[[0,0.5],[1,0.5]];portConstraint=eastwest;rotatable=0;whiteSpace=wrap;html=1;labelBackgroundColor=none;fontColor=#FFFFFF;rounded=0;fontFamily=https://fonts.googleapis.com/css2?family=Roboto+Mono:ital,wght@0,100..700;1,100..700&amp;display=swap;fontSource=https%3A%2F%2Ffonts.googleapis.com%2Fcss%3Ffamily%3Dhttps%253A%252F%252Ffonts.googleapis.com%252Fcss2%253Ffamily%253DRoboto%252BMono%253Aital%252Cwght%25400%252C100..700%253B1%252C100..700%2526display%253Dswap;" parent="DyRPAL3B6Roxzkc7XD3o-67" vertex="1">
          <mxGeometry y="250" width="358.5" height="30" as="geometry" />
        </mxCell>
        <mxCell id="DyRPAL3B6Roxzkc7XD3o-77" value="&lt;div&gt;# START_POINT: Point = new Point(&lt;/div&gt;&lt;div&gt;&lt;span style=&quot;white-space: pre;&quot;&gt;&#x9;&lt;/span&gt;&lt;span style=&quot;white-space: pre;&quot;&gt;&#x9;&lt;/span&gt;&lt;span style=&quot;white-space: pre;&quot;&gt;&#x9;&lt;/span&gt;&lt;span style=&quot;white-space: pre;&quot;&gt;&#x9;&lt;/span&gt;&lt;span style=&quot;white-space: pre;&quot;&gt;&#x9;&lt;/span&gt;&lt;span style=&quot;white-space: pre;&quot;&gt;&#x9;&lt;/span&gt;GameInfo.GAME_WIDTH / 2,&amp;nbsp;&lt;/div&gt;&lt;div&gt;&lt;span style=&quot;white-space: pre;&quot;&gt;&#x9;&lt;/span&gt;&lt;span style=&quot;white-space: pre;&quot;&gt;&#x9;&lt;/span&gt;&lt;span style=&quot;white-space: pre;&quot;&gt;&#x9;&lt;/span&gt;&lt;span style=&quot;white-space: pre;&quot;&gt;&#x9;&lt;/span&gt;&lt;span style=&quot;white-space: pre;&quot;&gt;&#x9;&lt;/span&gt;&lt;span style=&quot;white-space: pre;&quot;&gt;&#x9;&lt;/span&gt;GameInfo.GAME_HEIGHT - 50&lt;/div&gt;&lt;div&gt;&lt;span style=&quot;white-space: pre;&quot;&gt;&#x9;&lt;/span&gt;&lt;span style=&quot;white-space: pre;&quot;&gt;&#x9;&lt;/span&gt;&lt;span style=&quot;white-space: pre;&quot;&gt;&#x9;&lt;/span&gt;&lt;span style=&quot;white-space: pre;&quot;&gt;&#x9;&lt;/span&gt;&lt;span style=&quot;white-space: pre;&quot;&gt;&#x9;&lt;/span&gt;)&lt;/div&gt;" style="text;strokeColor=none;fillColor=none;align=left;verticalAlign=middle;spacingLeft=4;spacingRight=4;overflow=hidden;points=[[0,0.5],[1,0.5]];portConstraint=eastwest;rotatable=0;whiteSpace=wrap;html=1;labelBackgroundColor=none;fontColor=#FFFFFF;rounded=0;fontFamily=https://fonts.googleapis.com/css2?family=Roboto+Mono:ital,wght@0,100..700;1,100..700&amp;display=swap;fontSource=https%3A%2F%2Ffonts.googleapis.com%2Fcss%3Ffamily%3Dhttps%253A%252F%252Ffonts.googleapis.com%252Fcss2%253Ffamily%253DRoboto%252BMono%253Aital%252Cwght%25400%252C100..700%253B1%252C100..700%2526display%253Dswap;" parent="DyRPAL3B6Roxzkc7XD3o-67" vertex="1">
          <mxGeometry y="280" width="358.5" height="73" as="geometry" />
        </mxCell>
        <mxCell id="DyRPAL3B6Roxzkc7XD3o-80" value="&lt;font face=&quot;Verdana&quot;&gt;&lt;b&gt;Brick&lt;/b&gt;&lt;/font&gt;" style="swimlane;fontStyle=0;childLayout=stackLayout;horizontal=1;startSize=40;horizontalStack=0;resizeParent=1;resizeParentMax=0;resizeLast=0;collapsible=1;marginBottom=0;whiteSpace=wrap;html=1;labelBackgroundColor=none;fillColor=#5D7F99;strokeColor=#FFFFFF;fontColor=#1A1A1A;rounded=0;strokeWidth=2;" parent="1" vertex="1">
          <mxGeometry x="773" y="560" width="219" height="190" as="geometry">
            <mxRectangle x="1000" y="560" width="150" height="50" as="alternateBounds" />
          </mxGeometry>
        </mxCell>
        <mxCell id="DyRPAL3B6Roxzkc7XD3o-86" value="+ equals(o: Object): boolean" style="text;strokeColor=none;fillColor=none;align=left;verticalAlign=middle;spacingLeft=4;spacingRight=4;overflow=hidden;points=[[0,0.5],[1,0.5]];portConstraint=eastwest;rotatable=0;whiteSpace=wrap;html=1;labelBackgroundColor=none;fontColor=#FFFFFF;rounded=0;fontFamily=https://fonts.googleapis.com/css2?family=Roboto+Mono:ital,wght@0,100..700;1,100..700&amp;display=swap;fontSource=https%3A%2F%2Ffonts.googleapis.com%2Fcss%3Ffamily%3Dhttps%253A%252F%252Ffonts.googleapis.com%252Fcss2%253Ffamily%253DRoboto%252BMono%253Aital%252Cwght%25400%252C100..700%253B1%252C100..700%2526display%253Dswap;" parent="DyRPAL3B6Roxzkc7XD3o-80" vertex="1">
          <mxGeometry y="40" width="219" height="30" as="geometry" />
        </mxCell>
        <mxCell id="DyRPAL3B6Roxzkc7XD3o-87" value="+ hashCode(): int" style="text;strokeColor=none;fillColor=none;align=left;verticalAlign=middle;spacingLeft=4;spacingRight=4;overflow=hidden;points=[[0,0.5],[1,0.5]];portConstraint=eastwest;rotatable=0;whiteSpace=wrap;html=1;labelBackgroundColor=none;fontColor=#FFFFFF;rounded=0;fontFamily=https://fonts.googleapis.com/css2?family=Roboto+Mono:ital,wght@0,100..700;1,100..700&amp;display=swap;fontSource=https%3A%2F%2Ffonts.googleapis.com%2Fcss%3Ffamily%3Dhttps%253A%252F%252Ffonts.googleapis.com%252Fcss2%253Ffamily%253DRoboto%252BMono%253Aital%252Cwght%25400%252C100..700%253B1%252C100..700%2526display%253Dswap;" parent="DyRPAL3B6Roxzkc7XD3o-80" vertex="1">
          <mxGeometry y="70" width="219" height="30" as="geometry" />
        </mxCell>
        <mxCell id="DyRPAL3B6Roxzkc7XD3o-88" value="+ toString(): String" style="text;strokeColor=none;fillColor=none;align=left;verticalAlign=middle;spacingLeft=4;spacingRight=4;overflow=hidden;points=[[0,0.5],[1,0.5]];portConstraint=eastwest;rotatable=0;whiteSpace=wrap;html=1;labelBackgroundColor=none;fontColor=#FFFFFF;rounded=0;fontFamily=https://fonts.googleapis.com/css2?family=Roboto+Mono:ital,wght@0,100..700;1,100..700&amp;display=swap;fontSource=https%3A%2F%2Ffonts.googleapis.com%2Fcss%3Ffamily%3Dhttps%253A%252F%252Ffonts.googleapis.com%252Fcss2%253Ffamily%253DRoboto%252BMono%253Aital%252Cwght%25400%252C100..700%253B1%252C100..700%2526display%253Dswap;" parent="DyRPAL3B6Roxzkc7XD3o-80" vertex="1">
          <mxGeometry y="100" width="219" height="30" as="geometry" />
        </mxCell>
        <mxCell id="DyRPAL3B6Roxzkc7XD3o-89" value="# serialVersionUID: long = 5328743" style="text;strokeColor=none;fillColor=none;align=left;verticalAlign=middle;spacingLeft=4;spacingRight=4;overflow=hidden;points=[[0,0.5],[1,0.5]];portConstraint=eastwest;rotatable=0;whiteSpace=wrap;html=1;labelBackgroundColor=none;fontColor=#FFFFFF;rounded=0;fontFamily=https://fonts.googleapis.com/css2?family=Roboto+Mono:ital,wght@0,100..700;1,100..700&amp;display=swap;fontSource=https%3A%2F%2Ffonts.googleapis.com%2Fcss%3Ffamily%3Dhttps%253A%252F%252Ffonts.googleapis.com%252Fcss2%253Ffamily%253DRoboto%252BMono%253Aital%252Cwght%25400%252C100..700%253B1%252C100..700%2526display%253Dswap;" parent="DyRPAL3B6Roxzkc7XD3o-80" vertex="1">
          <mxGeometry y="130" width="219" height="30" as="geometry" />
        </mxCell>
        <mxCell id="DyRPAL3B6Roxzkc7XD3o-90" value="# ASPECT_RATIO: double = 7.0 / 3" style="text;strokeColor=none;fillColor=none;align=left;verticalAlign=middle;spacingLeft=4;spacingRight=4;overflow=hidden;points=[[0,0.5],[1,0.5]];portConstraint=eastwest;rotatable=0;whiteSpace=wrap;html=1;labelBackgroundColor=none;fontColor=#FFFFFF;rounded=0;fontFamily=https://fonts.googleapis.com/css2?family=Roboto+Mono:ital,wght@0,100..700;1,100..700&amp;display=swap;fontSource=https%3A%2F%2Ffonts.googleapis.com%2Fcss%3Ffamily%3Dhttps%253A%252F%252Ffonts.googleapis.com%252Fcss2%253Ffamily%253DRoboto%252BMono%253Aital%252Cwght%25400%252C100..700%253B1%252C100..700%2526display%253Dswap;" parent="DyRPAL3B6Roxzkc7XD3o-80" vertex="1">
          <mxGeometry y="160" width="219" height="30" as="geometry" />
        </mxCell>
      </root>
    </mxGraphModel>
  </diagram>
</mxfile>
